<?xml version="1.0" encoding="utf-8"?>
<svg width="20px" height="18.350006px" viewBox="0 0 20 18.350006" version="1.1" xmlns:xlink="http://www.w3.org/1999/xlink" xmlns="http://www.w3.org/2000/svg">
  <defs>
    <path d="M12 21.35L10.55 20.03C5.4 15.36 2 12.28 2 8.5C2 5.42 4.42 3 7.5 3C9.24 3 10.91 3.81 12 5.09C13.09 3.81 14.76 3 16.5 3C19.58 3 22 5.42 22 8.5C22 12.28 18.6 15.36 13.45 20.04L12 21.35Z" id="path_1" />
    <clipPath id="mask_1">
      <use xlink:href="#path_1" />
    </clipPath>
  </defs>
  <g id="ðŸ“Icon" transform="translate(-2 -3)">
    <path d="M12 21.35L10.55 20.03C5.4 15.36 2 12.28 2 8.5C2 5.42 4.42 3 7.5 3C9.24 3 10.91 3.81 12 5.09C13.09 3.81 14.76 3 16.5 3C19.58 3 22 5.42 22 8.5C22 12.28 18.6 15.36 13.45 20.04L12 21.35Z" id="-â†³Color" fill="#FFFFFF" fill-opacity="0.6" fill-rule="evenodd" stroke="none" />
  </g>
</svg>