<?xml version="1.0" encoding="utf-8"?>
<svg width="15.374466px" height="15.374512px" viewBox="0 0 15.374466 15.374512" version="1.1" xmlns:xlink="http://www.w3.org/1999/xlink" xmlns="http://www.w3.org/2000/svg">
  <defs>
    <path d="M0 0L15.3745 0L15.3745 15.3745L0 15.3745L0 0Z" id="path_1" />
    <clipPath id="mask_1">
      <use xlink:href="#path_1" />
    </clipPath>
  </defs>
  <g id="Search-Icon-4">
    <path d="M0 0L15.3745 0L15.3745 15.3745L0 15.3745L0 0Z" id="Background" fill="#FFFFFF" fill-opacity="0" fill-rule="evenodd" stroke="none" />
    <g clip-path="url(#mask_1)">
      <path d="M5.76539 1.28101C3.29642 1.28101 1.28117 3.29625 1.28117 5.76523C1.28117 8.23421 3.29642 10.2494 5.76539 10.2494C6.88517 10.2494 7.90822 9.83179 8.69565 9.14841L8.96841 9.42117L8.96841 10.2494L12.812 14.0931L14.0932 12.8119L10.2496 8.96824L9.42134 8.96824L9.14858 8.69549C9.83196 7.90805 10.2496 6.885 10.2496 5.76523C10.2496 3.29625 8.23437 1.28101 5.76539 1.28101L5.76539 1.28101ZM5.76536 2.56201C7.54192 2.56201 8.96838 3.98846 8.96838 5.76503C8.96838 7.54159 7.54192 8.96804 5.76536 8.96804C3.9888 8.96804 2.56235 7.54159 2.56235 5.76503C2.56235 3.98846 3.9888 2.56201 5.76536 2.56201L5.76536 2.56201Z" id="Shape" fill="#FFFFFF" fill-rule="evenodd" stroke="none" />
    </g>
  </g>
</svg>