<?xml version="1.0" encoding="utf-8"?>
<svg width="101.48602px" height="29px" viewBox="0 0 101.48602 29" version="1.1" xmlns:xlink="http://www.w3.org/1999/xlink" xmlns="http://www.w3.org/2000/svg">
  <defs>
    <linearGradient gradientUnits="userSpaceOnUse" x1="50.74302" y1="0" x2="50.74302" y2="29" id="gradient_1">
      <stop offset="0%" stop-color="#414141" />
      <stop offset="100%" stop-color="#1F1F1F" />
    </linearGradient>
  </defs>
  <path d="M-337.901 -75.5C-327.635 -75.5 -289.248 -75.5 -289.248 -75.5C-268.662 -75.5 -248.344 -75.5 -241.413 -75.5C-240.033 -75.5 -238.914 -74.3812 -238.914 -73.001L-238.914 -48.999Q-238.914 -48.8762 -238.926 -48.7541Q-238.938 -48.6319 -238.962 -48.5115Q-238.986 -48.3911 -239.022 -48.2736Q-239.057 -48.1561 -239.104 -48.0427Q-239.151 -47.9292 -239.209 -47.821Q-239.267 -47.7127 -239.335 -47.6106Q-239.403 -47.5086 -239.481 -47.4137Q-239.559 -47.3187 -239.646 -47.2319Q-239.733 -47.1451 -239.828 -47.0672Q-239.922 -46.9894 -240.025 -46.9212Q-240.127 -46.853 -240.235 -46.7951Q-240.343 -46.7372 -240.457 -46.6902Q-240.57 -46.6432 -240.687 -46.6076Q-240.805 -46.572 -240.925 -46.548Q-241.046 -46.5241 -241.168 -46.512Q-241.29 -46.5 -241.413 -46.5L-289.248 -46.5L-289.248 -46.5L-337.901 -46.5Q-338.024 -46.5 -338.146 -46.512Q-338.268 -46.5241 -338.388 -46.548Q-338.509 -46.572 -338.626 -46.6076Q-338.744 -46.6432 -338.857 -46.6902Q-338.971 -46.7372 -339.079 -46.7951Q-339.187 -46.853 -339.289 -46.9212Q-339.391 -46.9894 -339.486 -47.0672Q-339.581 -47.1451 -339.668 -47.2319Q-339.755 -47.3187 -339.833 -47.4137Q-339.911 -47.5086 -339.979 -47.6106Q-340.047 -47.7127 -340.105 -47.821Q-340.163 -47.9292 -340.21 -48.0427Q-340.257 -48.1561 -340.292 -48.2736Q-340.328 -48.3911 -340.352 -48.5115Q-340.376 -48.6319 -340.388 -48.7541Q-340.4 -48.8762 -340.4 -48.999L-340.4 -73.001C-340.4 -74.3812 -339.281 -75.5 -337.901 -75.5Z" id="Rectangle-2" fill="url(#gradient_1)" fill-rule="evenodd" stroke="none" />
</svg>