<?xml version="1.0" encoding="utf-8"?>
<svg width="239.5436px" height="17px" viewBox="0 0 239.5436 17" version="1.1" xmlns:xlink="http://www.w3.org/1999/xlink" xmlns="http://www.w3.org/2000/svg">
  <defs>
    <linearGradient gradientUnits="userSpaceOnUse" x1="119.771805" y1="0" x2="119.771805" y2="17" id="gradient_1">
      <stop offset="0%" stop-color="#2CD8D5" />
      <stop offset="50%" stop-color="#6B8DD6" />
      <stop offset="100%" stop-color="#8E37D7" />
    </linearGradient>
  </defs>
  <g fill="url(#gradient_1)" stroke="none" id="VISIOPHONE">
    <path d="M50.8795 6.46165Q50.8298 5.91477 50.4396 5.60902Q50.0493 5.30327 49.3284 5.30327Q48.6125 5.30327 48.2545 5.57422Q47.8966 5.84517 47.8916 6.26278Q47.8767 6.7152 48.2844 6.97124Q48.692 7.22727 49.3831 7.37642L50.2581 7.57528Q51.7645 7.90838 52.5674 8.66406Q53.3703 9.41974 53.3753 10.6378Q53.3703 12.0895 52.3014 12.9048Q51.2325 13.7202 49.3284 13.7202Q47.4094 13.7202 46.2584 12.8526Q45.1075 11.9851 45.0827 10.2003L47.4392 10.2003Q47.479 10.9361 47.9811 11.3114Q48.4832 11.6868 49.2986 11.6868Q50.0393 11.6868 50.457 11.3935Q50.8746 11.1001 50.8795 10.6328Q50.8746 10.2053 50.4818 9.94922Q50.0891 9.69318 49.2489 9.49929L48.1849 9.25071Q46.8675 8.94744 46.1043 8.26882Q45.3412 7.5902 45.3462 6.43182Q45.3412 5.48224 45.8533 4.77131Q46.3653 4.06037 47.2677 3.66513Q48.17 3.26989 49.3334 3.26989Q50.5166 3.26989 51.3891 3.6701Q52.2616 4.07031 52.7439 4.78871Q53.2261 5.5071 53.2361 6.46165L50.8795 6.46165ZM98.0354 8.5Q98.0354 10.1804 97.3891 11.3487Q96.7428 12.517 95.6415 13.1236Q94.5403 13.7301 93.1731 13.7301Q91.801 13.7301 90.6998 13.1211Q89.5986 12.5121 88.9572 11.3438Q88.3159 10.1754 88.3159 8.5Q88.3159 6.81463 88.9572 5.64879Q89.5986 4.48295 90.6998 3.87642Q91.801 3.26989 93.1731 3.26989Q94.5403 3.26989 95.6415 3.87642Q96.7428 4.48295 97.3891 5.64879Q98.0354 6.81463 98.0354 8.5ZM172.729 11.3487Q173.375 10.1804 173.375 8.5Q173.375 6.81463 172.729 5.64879Q172.083 4.48295 170.981 3.87642Q169.88 3.26989 168.513 3.26989Q167.141 3.26989 166.04 3.87642Q164.938 4.48295 164.297 5.64879Q163.656 6.81463 163.656 8.5Q163.656 10.1754 164.297 11.3438Q164.938 12.5121 166.04 13.1211Q167.141 13.7301 168.513 13.7301Q169.88 13.7301 170.981 13.1236Q172.083 12.517 172.729 11.3487ZM5.35938 10.8665L3.08239 3.40909L0.328125 3.40909L3.76349 13.5909L7.03977 13.5909L10.4751 3.40909L7.72088 3.40909L5.44389 10.8665L5.35938 10.8665ZM28.9348 13.5909L28.9348 3.40909L26.4739 3.40909L26.4739 13.5909L28.9348 13.5909ZM71.9841 13.5909L71.9841 3.40909L69.5232 3.40909L69.5232 13.5909L71.9841 13.5909ZM118.573 3.40909L114.367 3.40909L114.367 13.5909L116.828 13.5909L116.828 10.429L118.499 10.429Q119.667 10.429 120.515 9.99645Q121.362 9.56392 121.825 8.77592Q122.287 7.98793 122.287 6.93395Q122.287 5.88494 121.835 5.09197Q121.382 4.29901 120.549 3.85405Q119.717 3.40909 118.573 3.40909ZM138.395 3.40909L140.856 3.40909L140.856 7.49574L144.868 7.49574L144.868 3.40909L147.324 3.40909L147.324 13.5909L144.868 13.5909L144.868 9.49929L140.856 9.49929L140.856 13.5909L138.395 13.5909L138.395 3.40909ZM198.373 13.5909L196.285 13.5909L192.233 7.71449L192.168 7.71449L192.168 13.5909L189.707 13.5909L189.707 3.40909L191.825 3.40909L195.832 9.27557L195.917 9.27557L195.917 3.40909L198.373 3.40909L198.373 13.5909ZM221.913 3.40909L214.814 3.40909L214.814 13.5909L221.913 13.5909L221.913 11.5923L217.275 11.5923L217.275 9.49929L221.55 9.49929L221.55 7.49574L217.275 7.49574L217.275 5.40767L221.913 5.40767L221.913 3.40909ZM118.041 8.49006L116.828 8.49006L116.828 5.39276L118.041 5.39276Q118.871 5.39276 119.304 5.80788Q119.737 6.22301 119.737 6.93395Q119.737 7.63992 119.304 8.06499Q118.871 8.49006 118.041 8.49006ZM95.5197 8.5Q95.5197 7.00355 94.8983 6.21555Q94.2768 5.42756 93.1731 5.42756Q92.0744 5.42756 91.4505 6.21555Q90.8266 7.00355 90.8266 8.5Q90.8266 9.99645 91.4505 10.7844Q92.0744 11.5724 93.1731 11.5724Q94.2768 11.5724 94.8983 10.7844Q95.5197 9.99645 95.5197 8.5ZM170.238 6.21555Q170.86 7.00355 170.86 8.5Q170.86 9.99645 170.238 10.7844Q169.617 11.5724 168.513 11.5724Q167.414 11.5724 166.79 10.7844Q166.166 9.99645 166.166 8.5Q166.166 7.00355 166.79 6.21555Q167.414 5.42756 168.513 5.42756Q169.617 5.42756 170.238 6.21555Z" />
  </g>
</svg>